<svg width="300" height="30" viewBox="0 0 300 30" fill="none" xmlns="http://www.w3.org/2000/svg">
<path d="M29.3254 12.0574H24.9905V26.921H29.3254V12.0574Z" fill="white"/>
<path d="M29.3254 6.43774H24.9905V9.94014H29.3254V6.43774Z" fill="white"/>
<path d="M17.3684 6.43774H15.9402L10.8445 20.5765L5.78469 6.43774H4.33493H0V26.921H4.33493V13.5717L9.50239 26.921H12.2584L17.3684 13.5861V26.921H21.6962V6.43774H17.3684Z" fill="white"/>
<path d="M36.5168 14.634V12.0862H32.1819V26.9498H36.5168V18.3446C36.5168 18.3446 36.6532 15.0862 41.4977 15.4163V12.0575C41.4977 12.0575 37.7226 11.9355 36.5168 14.634Z" fill="white"/>
<path d="M50.1746 12.0862C43.8445 12.0862 43.6148 15.6962 43.6148 17.0096H47.1746C47.1746 17.0096 47.1244 14.6125 50.0526 14.6125C52.9809 14.6125 52.9019 16.3278 52.9019 16.5288C52.9019 16.7297 52.8517 18.0718 48.9689 18.4594C45.0861 18.8469 42.9402 19.9594 42.9402 22.9091C42.9402 25.8589 45.2368 26.9211 48.2153 26.9211C51.1938 26.9211 52.9091 25.1053 52.9091 25.1053V26.9211H56.5407V15.7178C56.5407 15.7178 56.512 12.0862 50.1818 12.0862H50.1746ZM52.7153 20.9283C52.7153 21.6819 52.5359 22.4426 52.1411 23.0814C51.689 23.8135 50.9139 24.6388 49.5287 24.8613C48.3947 25.0407 47.7488 24.646 47.3828 24.158C46.7727 23.3469 46.8804 22.1843 47.5837 21.4666C48.2943 20.7417 49.7512 19.9809 52.7225 19.9163V20.9211L52.7153 20.9283Z" fill="white"/>
<path d="M66.689 24.2082C64.2775 24.2082 62.8995 22.8302 62.8995 20.591H73.701C73.701 20.591 73.5718 12.0862 66.3876 12.0862C59.2034 12.0862 59.2034 19.2991 59.2034 20.4187C59.2034 21.5383 60.1938 27.3876 66.4522 27.3876C72.7105 27.3876 73.701 22.1412 73.701 22.1412H69.567C69.567 22.1412 69.0933 24.2082 66.6818 24.2082H66.689ZM66.2584 14.9139C69.6603 14.9139 69.6603 18.4594 69.6603 18.4594H62.8637C62.8637 18.4594 62.8637 14.9139 66.2656 14.9139H66.2584Z" fill="white"/>
<path d="M140.333 24.2082C137.921 24.2082 136.543 22.8302 136.543 20.591H147.345C147.345 20.591 147.215 12.0862 140.031 12.0862C132.847 12.0862 132.847 19.2991 132.847 20.4187C132.847 21.5383 133.837 27.3876 140.096 27.3876C146.354 27.3876 147.345 22.1412 147.345 22.1412H143.211C143.211 22.1412 142.737 24.2082 140.325 24.2082H140.333ZM139.902 14.9139C143.304 14.9139 143.304 18.4594 143.304 18.4594H136.507C136.507 18.4594 136.507 14.9139 139.909 14.9139H139.902Z" fill="white"/>
<path d="M93.8397 6.48071H90.0933L82.177 26.9281H86.311L88.0765 21.9759H95.5191L97.1985 26.9281H101.849L93.8469 6.48071H93.8397ZM89.0957 19.1195L91.8158 11.5549L94.5 19.1123L89.0957 19.1266V19.1195Z" fill="white"/>
<path d="M102.474 21.9617H106.263C106.263 21.9617 106.263 24.8613 109.392 24.8613C112.521 24.8613 112.163 22.8876 112.163 22.5215C112.163 22.1555 111.108 21.201 109.098 20.8062C107.088 20.4115 102.84 19.4211 102.84 16.3565C102.84 13.2919 105.28 12.0718 109.069 12.0718C112.859 12.0718 115.694 14.4474 115.694 16.1914H111.474C111.474 16.1914 111.208 14.4474 109.084 14.4474C106.959 14.4474 106.895 15.6675 106.895 16.1627C106.895 16.6579 107.225 17.8134 112.299 18.4665C117.373 19.1196 117.208 26.9211 109.923 26.9211C102.639 26.9211 102.474 21.9617 102.474 21.9617Z" fill="white"/>
<path d="M117.61 21.9617H121.4C121.4 21.9617 121.4 24.8613 124.529 24.8613C127.658 24.8613 127.299 22.8876 127.299 22.5215C127.299 22.1555 126.244 21.201 124.235 20.8062C122.225 20.4115 117.976 19.4211 117.976 16.3565C117.976 13.2919 120.416 12.0718 124.206 12.0718C127.995 12.0718 130.83 14.4474 130.83 16.1914H126.61C126.61 16.1914 126.345 14.4474 124.22 14.4474C122.096 14.4474 122.031 15.6675 122.031 16.1627C122.031 16.6579 122.361 17.8134 127.435 18.4665C132.51 19.1196 132.345 26.9211 125.06 26.9211C117.775 26.9211 117.61 21.9617 117.61 21.9617Z" fill="white"/>
<path d="M157.816 15.2152V12.3659H155.017V7.77979H150.682V12.3587H148.256V15.208H150.682V22.6434C150.682 22.6434 150.179 26.9209 153.452 26.9209H157.816V23.885C157.816 23.885 155.017 24.4807 155.017 22.6506V15.2152H157.816Z" fill="white"/>
<path d="M167.742 17.0957C167.742 22.2345 171.56 27.3876 178.084 27.3876C184.608 27.3876 184.335 25.4211 184.335 25.4211L183.158 22.6436C183.158 22.6436 171.84 26.3972 171.84 17.3685C171.84 8.33977 178.852 9.10771 182.046 9.80388L183.431 7.09814C183.431 7.09814 168.502 2.37566 167.742 17.0957Z" fill="white"/>
<path d="M206.411 6.38062V26.9213H210.581V10.5074L218.749 26.9213H224.541V6.38062H220.608V22.7443L211.995 6.38062H206.411Z" fill="white"/>
<path d="M244.636 6.38062H228.811V9.91889H234.158V26.9213H238.5V9.91889H242.806L244.636 6.38062Z" fill="white"/>
<path d="M252.287 18.1653H259.593V14.4763H253.507L252.287 15.9548V9.86865H259.191L260.663 6.43085H252.287V6.38062H248.081V6.43085V9.86865V23.4835V24.8112V26.9213H259.191L260.663 23.4835H252.287V18.1653Z" fill="white"/>
<path d="M193.012 18.1653H200.318V14.4763H194.232L193.012 15.9548V9.86865H199.916L201.387 6.43085H193.012V6.38062H188.806V6.43085V9.86865V23.4835V24.8112V26.9213H199.916L201.387 23.4835H193.012V18.1653Z" fill="white"/>
<path d="M278.045 23.4832L274.651 18.0645C276.71 17.476 279.143 16.0047 279.143 12.3731C279.143 6.06451 273.079 6.3803 273.079 6.3803H265.615V26.921H269.82V18.4592H270.631L275.842 26.921H279.588L281.34 23.4832H278.038H278.045ZM269.82 15.5956V9.86834H272.67C272.67 9.86834 275.684 9.78221 275.684 12.4162C275.684 15.0502 273.323 15.5884 272.756 15.5884H269.828L269.82 15.5956Z" fill="white"/>
<path d="M286.651 5.84453L291.732 1.28711H293.447V9.38998C293.447 9.38998 292.048 9.54788 292.048 11.945C292.048 14.3421 293.447 14.4354 293.447 14.4354V22.8972H287.024V21.8637L291.057 20.1555V5.23448L289.672 5.84453H286.651Z" fill="white"/>
<path d="M294.208 1.28711H296.289V20.1555L299.871 21.8637V22.8972H294.208V14.012C294.208 14.012 292.794 13.6962 292.794 11.8876C292.794 10.079 293.454 9.92826 294.208 9.59094V1.28711Z" fill="white"/>
</svg>
